<?xml version="1.0" encoding="UTF-8"?>
<svg width="42px" height="28px" viewBox="0 0 42 28" version="1.1" xmlns="http://www.w3.org/2000/svg" xmlns:xlink="http://www.w3.org/1999/xlink">
    <!-- Generator: Sketch 51.2 (57519) - http://www.bohemiancoding.com/sketch -->
    <title>Group</title>
    <desc>Created with Sketch.</desc>
    <defs></defs>
    <g id="Screens" stroke="none" stroke-width="1" fill="none" fill-rule="evenodd">
        <g id="articles" transform="translate(-60.000000, -18.000000)" fill="#00B5EC">
            <g id="Group-3" transform="translate(60.000000, 18.000000)">
                <g id="fitt-logo">
                    <g id="Group">
                        <g id="Page-1">
                            <g id="Group">
                                <path d="M22.2100269,20.54817 C21.5878358,22.2194699 20.6871958,23.23677 19.8424798,23.87727 C18.646409,24.78387 18.1041511,23.8658699 18.2107288,22.9313699 C18.6021968,19.50057 19.10522,19.11837 19.5608103,15.11397 C19.7092578,13.80957 18.6932563,12.78447 17.4397974,12.97587 L16.9373598,13.05267 C16.7078078,13.08777 16.5212969,13.28697 16.4940669,13.52577 L15.0906965,21.98517 C14.6895662,24.67287 15.221869,26.43567 17.4424325,26.0855699 L17.4424325,26.0855699 C17.5185594,26.08047 21.033866,25.94517 23.2986417,20.88057 C23.345489,20.77557 23.2869299,20.65797 23.1859154,20.62797 L22.4559754,20.41047 C22.357596,20.38137 22.2489687,20.44377 22.2100269,20.54817" id="Fill-1"></path>
                                <path d="M29.1256884,19.49205 C28.5034973,21.16335 27.6028574,22.18065 26.7581414,22.82115 C25.5620705,23.72775 25.0198127,22.80975 25.1263904,21.87525 C25.5178583,18.44445 26.7408665,11.81055 27.1964568,7.80615 C27.3449043,6.50145 26.3289028,5.47665 25.0757367,5.66805 L24.5732991,5.74485 C24.3437472,5.77995 24.1569434,5.97915 24.1300062,6.21795 L22.0063581,20.92905 C21.6052278,23.61675 22.1375306,25.3795501 24.3580941,25.02945 L24.3580941,25.02945 C24.434221,25.02435 27.9495276,24.88905 30.2143033,19.82445 C30.2611506,19.71945 30.2025915,19.60185 30.101577,19.57185 L29.371637,19.35435 C29.2732575,19.3252501 29.1646303,19.38765 29.1256884,19.49205" id="Fill-3"></path>
                                <path d="M33.8019598,22.27605 C33.5882189,21.96225 33.348419,21.9859499 33.012875,22.15425 C32.4717884,22.42605 31.5655853,23.11185 31.8539892,20.84805 C32.290255,17.4226499 33.4684653,10.78305 33.9240556,6.77865 C34.0725031,5.47425 33.0565016,4.44915 31.8033355,4.64055 L31.3006051,4.71735 C31.0710532,4.75245 30.8845422,4.95165 30.8573122,5.19045 L28.7339569,19.90155 C28.3325338,22.58955 28.8648366,24.35205 31.085693,24.0019499 C31.1304908,23.99895 32.2554123,23.84895 33.7293464,22.77195 C33.8792578,22.66245 33.9190781,22.45095 33.8151356,22.29555 C33.8107437,22.28925 33.8063517,22.28265 33.8019598,22.27605" id="Fill-5"></path>
                                <g id="Group-9" transform="translate(20.084211, 10.080000)">
                                    <g id="Fill-7-Clipped">
                                        <path d="M0.20367037,3.28622998 L0.21655336,3.50373001 C0.287409954,4.69773004 1.28437974,5.52212996 2.44326559,5.34512995 L20.8583658,2.53263004 C21.0188179,2.50833001 21.1412066,2.35413004 21.1312515,2.18882995 L21.1160262,1.93413004 C21.0466336,0.760829949 20.0666459,-0.0494700029 18.9276702,0.124529949 L0.476556082,2.94242999 C0.316103991,2.96673002 0.194008053,3.12092999 0.20367037,3.28622998" id="Fill-7"></path>
                                    </g>
                                </g>
                                <path d="M20.1332261,7.74141 C20.4497384,8.74191 19.9446656,9.94911 19.1248373,10.6283099 C18.7354189,10.95111 18.2300533,11.1428099 17.7671431,11.05731 C17.2737821,10.9664099 16.8867061,10.56771 16.7154205,10.08471 C16.2662718,8.81841 17.1669117,6.74151 18.6671974,6.65421 C19.455111,6.60831 19.91685,7.05741 20.1332261,7.74141" id="Fill-10"></path>
                                <path d="M3.85249027,15.8762099 L3.86537329,16.09371 C3.93622987,17.28771 4.93319964,18.11211 6.0920855,17.93511 L14.827356,16.60101 C14.9878081,16.57641 15.1101968,16.42251 15.1002416,16.25721 L15.0853091,16.00251 C15.0156237,14.82891 14.0359288,14.01891 12.8966603,14.19291 L4.12537598,15.53241 C3.96492387,15.55671 3.84253522,15.71091 3.85249027,15.8762099" id="Fill-12"></path>
                                <g id="Group-16">
                                    <g id="Fill-14-Clipped">
                                        <path d="M2.57177208,11.32572 C2.38906749,11.47962 1.68957828,10.97532 1.35637664,10.71522 C0.952025606,10.39932 0.555580067,9.97932 0.318415453,9.51582 C-1.90068406,5.18082 7.77504659,1.56882 20.1790487,0.26802 C21.6661586,0.11202 23.2340802,0.52032 23.3834061,2.29062 C23.3910189,2.38002 23.3980459,2.46492 23.4041947,2.54292 C23.4264471,2.81742 23.2001159,3.07242 22.9178608,3.09312 C20.5795933,3.26412 8.62532565,5.30922 6.49699284,6.01212 C5.19844338,6.44112 3.16790436,6.99852 2.17005621,8.13972 C1.78298014,8.58252 1.61579373,9.08532 1.78883606,9.64062 C1.8910218,9.96882 2.30942703,10.21122 2.50325785,10.45032 C2.71612042,10.71312 2.83733788,11.10192 2.57177208,11.32572" id="Fill-14"></path>
                                    </g>
                                </g>
                                <path d="M6.87393817,27.71046 L6.62476893,27.74856 C5.1912406,27.96756 4.0282556,26.79606 4.19778439,25.30416 L7.0399534,4.80846 C7.0607419,4.62606 7.20333347,4.47396 7.37842537,4.44726 L8.20498797,4.32096 C9.337815,4.14786 10.2569011,5.07336 10.1230933,6.25236 L7.21241014,27.34926 C7.19162164,27.53166 7.04932287,27.68376 6.87393817,27.71046" id="Fill-17"></path>
                            </g>
                        </g>
                    </g>
                </g>
            </g>
        </g>
    </g>
</svg>